<svg id="Layer_1" data-name="Layer 1" xmlns="http://www.w3.org/2000/svg" viewBox="0 0 350 350"><defs><style>.cls-1{fill:#ff9413;}.cls-2{fill:#ef2b3e;}.cls-3{fill:#5980fa;}.cls-4{fill:#9438f1;}</style></defs><path class="cls-1" d="M192.44,175l-33.9-.2A96.15,96.15,0,0,0,63,78.17l.19-33.91a130.05,130.05,0,0,1,112.62,66.47A130,130,0,0,1,289.21,45.54L289,79.45A96.15,96.15,0,0,0,192.44,175Z"/><circle class="cls-1" cx="176.3" cy="30.78" r="28.25"/><path class="cls-2" d="M287.74,305.74a130.06,130.06,0,0,1-112.62-66.46A130.06,130.06,0,0,1,61.76,304.46l.19-33.9a96.15,96.15,0,0,0,96.58-95.5l33.91.19a96.15,96.15,0,0,0,95.49,96.59Z"/><circle class="cls-2" cx="174.67" cy="319.22" r="28.25"/><path class="cls-3" d="M304.72,288.73l-33.9-.2A96.15,96.15,0,0,0,175.32,192l.19-33.9a96.15,96.15,0,0,0,96.59-95.5l33.9.19a130,130,0,0,1-66.47,112.63A130,130,0,0,1,304.72,288.73Z"/><circle class="cls-3" cx="319.48" cy="175.82" r="28.25"/><path class="cls-4" d="M78.87,287.45,45,287.26a130.05,130.05,0,0,1,66.47-112.62A130,130,0,0,1,46.25,61.27l33.9.2a96.16,96.16,0,0,0,95.5,96.58l-.19,33.9A96.15,96.15,0,0,0,78.87,287.45Z"/><circle class="cls-4" cx="31.49" cy="174.19" r="28.25"/><path class="cls-1" d="M270.16,81.21A95.36,95.36,0,0,1,289,79.45l.09-16.8,0,0c-2.93-3-17-.07-17-.07C272.06,68.94,265.6,76.59,270.16,81.21Z"/><path class="cls-2" d="M80.81,268.79A96.12,96.12,0,0,1,62,270.56l-.09,16.79v.12l18,1.73C82.76,288.2,86.35,275.22,80.81,268.79Z"/></svg>