<svg id="Layer_1" data-name="Layer 1" xmlns="http://www.w3.org/2000/svg" viewBox="0 0 473.86 173.58"><defs><style>.cls-1{fill:#ff9413;}.cls-2{fill:#ef2b3e;}.cls-3{fill:#5980fa;}.cls-4{fill:#9438f1;}</style></defs><title>Artboard 29 copy4</title><path class="cls-1" d="M97.88,88.35l-14.06-.08A39.91,39.91,0,0,0,44.2,48.19l.08-14.06A53.91,53.91,0,0,1,91,61.71a54,54,0,0,1,47-27.05L138,48.73A39.89,39.89,0,0,0,97.88,88.35Z"/><circle class="cls-1" cx="91.19" cy="28.53" r="11.72"/><path class="cls-2" d="M137.43,142.62A54,54,0,0,1,90.7,115a54,54,0,0,1-47,27.05L43.74,128A39.89,39.89,0,0,0,83.82,88.4l14.06.08a39.89,39.89,0,0,0,39.63,40.07Z"/><circle class="cls-2" cx="90.51" cy="148.21" r="11.72"/><path class="cls-3" d="M144.47,135.56l-14.06-.08A39.9,39.9,0,0,0,90.78,95.41l.08-14.07a39.9,39.9,0,0,0,40.08-39.62L145,41.8a53.93,53.93,0,0,1-27.57,46.72A54,54,0,0,1,144.47,135.56Z"/><circle class="cls-3" cx="150.6" cy="88.71" r="11.72"/><path class="cls-4" d="M50.76,135,36.7,135A54,54,0,0,1,64.28,88.22a53.94,53.94,0,0,1-27.05-47l14.07.08A39.89,39.89,0,0,0,90.92,81.34l-.08,14.07A39.9,39.9,0,0,0,50.76,135Z"/><circle class="cls-4" cx="31.1" cy="88.04" r="11.72"/><path class="cls-1" d="M130.13,49.46a39.68,39.68,0,0,1,7.83-.73l0-7,0,0c-1.22-1.23-7,0-7,0C130.92,44.37,128.24,47.54,130.13,49.46Z"/><path class="cls-2" d="M51.57,127.29a39.61,39.61,0,0,1-7.83.73l0,7v0l7.46.72C52.38,135.34,53.87,130,51.57,127.29Z"/><path d="M191.65,105.72a1.4,1.4,0,0,1-.44-1v-38a1.39,1.39,0,0,1,.44-1.06,1.45,1.45,0,0,1,1-.41h8.2a1.4,1.4,0,0,1,1.46,1.47V97h17.56a1.5,1.5,0,0,1,1.52,1.52v6.21a1.37,1.37,0,0,1-.44,1,1.53,1.53,0,0,1-1.08.41H192.67A1.4,1.4,0,0,1,191.65,105.72Z"/><path d="M226.09,71.07a1.53,1.53,0,0,1-.41-1.08V64.55a1.51,1.51,0,0,1,.44-1.09,1.39,1.39,0,0,1,1-.43h7.32a1.46,1.46,0,0,1,1.08.43,1.51,1.51,0,0,1,.44,1.09V70a1.47,1.47,0,0,1-.44,1.08,1.43,1.43,0,0,1-1.08.44h-7.32A1.34,1.34,0,0,1,226.09,71.07Zm0,34.65a1.4,1.4,0,0,1-.44-1V77.19a1.37,1.37,0,0,1,.44-1,1.41,1.41,0,0,1,1-.41h7.32a1.49,1.49,0,0,1,1.08.41,1.37,1.37,0,0,1,.44,1V104.7a1.37,1.37,0,0,1-.44,1,1.53,1.53,0,0,1-1.08.41h-7.32A1.4,1.4,0,0,1,226.12,105.72Z"/><path d="M246.6,105.75a1.37,1.37,0,0,1-.44-1v-21h-4.39a1.53,1.53,0,0,1-1.08-.41,1.41,1.41,0,0,1-.44-1.06v-5a1.37,1.37,0,0,1,.44-1,1.49,1.49,0,0,1,1.08-.41h4.39V74q0-5.85,3.4-8.49t9.71-2.63h4.63a1.55,1.55,0,0,1,1.08.41,1.37,1.37,0,0,1,.44,1.05v5A1.37,1.37,0,0,1,265,70.4a1.55,1.55,0,0,1-1.08.41h-4.16a3.48,3.48,0,0,0-2.66.85,3.68,3.68,0,0,0-.79,2.6v1.47h7a1.49,1.49,0,0,1,1.08.41,1.34,1.34,0,0,1,.44,1v5a1.37,1.37,0,0,1-.44,1.06,1.53,1.53,0,0,1-1.08.41h-7v21a1.45,1.45,0,0,1-.41,1,1.41,1.41,0,0,1-1.06.44h-7.14A1.53,1.53,0,0,1,246.6,105.75Z"/><path d="M270.39,102.91q-4.09-3.82-4.21-11.15V90c.15-4.65,1.6-8.27,4.33-10.89s6.42-3.92,11.06-3.92a16.71,16.71,0,0,1,8.52,2,12.8,12.8,0,0,1,5.2,5.56,18.14,18.14,0,0,1,1.73,8v1.46a1.47,1.47,0,0,1-.44,1.08,1.43,1.43,0,0,1-1.08.44H277v.35a7.38,7.38,0,0,0,1.23,4.25,3.87,3.87,0,0,0,3.33,1.6,4,4,0,0,0,2.25-.55A7.63,7.63,0,0,0,285.37,98a3.4,3.4,0,0,1,.85-.74,2.87,2.87,0,0,1,1-.14h7.66a1.37,1.37,0,0,1,.91.32,1,1,0,0,1,.38.79,6,6,0,0,1-1.72,3.57,13.64,13.64,0,0,1-5,3.51,19.1,19.1,0,0,1-7.81,1.46Q274.49,106.74,270.39,102.91Zm15.86-15.13v-.12A6.83,6.83,0,0,0,285,83.31a4.14,4.14,0,0,0-3.45-1.56,4.06,4.06,0,0,0-3.42,1.56,7,7,0,0,0-1.2,4.35v.12Z"/><path d="M322.62,114.87a1.38,1.38,0,0,1-.43-1.05V102.88q-2.82,3.87-8.43,3.86a11.5,11.5,0,0,1-9-3.62q-3.27-3.63-3.51-10l-.06-2.23.06-2.16q.24-6.56,3.48-10.1t9-3.54a11.82,11.82,0,0,1,5.29,1.11,10.27,10.27,0,0,1,3.72,3V77.19a1.37,1.37,0,0,1,.44-1,1.49,1.49,0,0,1,1.08-.41h7a1.39,1.39,0,0,1,1.05.41,1.42,1.42,0,0,1,.41,1v36.63a1.44,1.44,0,0,1-.41,1.05,1.42,1.42,0,0,1-1.05.41h-7.55A1.57,1.57,0,0,1,322.62,114.87Zm-1.81-17.75a6.21,6.21,0,0,0,1.38-3.78c.07-1,.11-1.73.11-2.16s0-1.21-.11-2.23a7.17,7.17,0,0,0-1.32-4.09,4.42,4.42,0,0,0-3.78-1.58,4.27,4.27,0,0,0-3.74,1.55,8.2,8.2,0,0,0-1.29,4.3c0,.39-.06,1-.06,1.81s0,1.43.06,1.82a8.23,8.23,0,0,0,1.29,4.3,4.3,4.3,0,0,0,3.74,1.55A4.61,4.61,0,0,0,320.81,97.12Z"/><path d="M341.09,103.29q-3.16-3.45-3.16-9.77V77.19a1.34,1.34,0,0,1,.44-1,1.41,1.41,0,0,1,1-.41h7.78a1.51,1.51,0,0,1,1.09.41,1.37,1.37,0,0,1,.44,1v16c0,3.62,1.62,5.44,4.85,5.44a4.75,4.75,0,0,0,3.66-1.43,5.72,5.72,0,0,0,1.32-4v-16a1.37,1.37,0,0,1,.44-1,1.49,1.49,0,0,1,1.08-.41h7.73a1.4,1.4,0,0,1,1.05.41,1.42,1.42,0,0,1,.41,1V104.7a1.45,1.45,0,0,1-.41,1,1.39,1.39,0,0,1-1.05.44h-7.14a1.57,1.57,0,0,1-1.09-.41,1.37,1.37,0,0,1-.44-1v-2.23q-3,4.27-9.71,4.27A10.75,10.75,0,0,1,341.09,103.29Z"/><path d="M375.15,71.07a1.53,1.53,0,0,1-.41-1.08V64.55a1.51,1.51,0,0,1,.44-1.09,1.39,1.39,0,0,1,1-.43h7.32a1.46,1.46,0,0,1,1.08.43,1.51,1.51,0,0,1,.44,1.09V70a1.47,1.47,0,0,1-.44,1.08,1.43,1.43,0,0,1-1.08.44H376.2A1.34,1.34,0,0,1,375.15,71.07Zm0,34.65a1.4,1.4,0,0,1-.44-1V77.19a1.37,1.37,0,0,1,.44-1,1.41,1.41,0,0,1,1-.41h7.32a1.49,1.49,0,0,1,1.08.41,1.37,1.37,0,0,1,.44,1V104.7a1.37,1.37,0,0,1-.44,1,1.53,1.53,0,0,1-1.08.41H376.2A1.4,1.4,0,0,1,375.18,105.72Z"/><path d="M389.81,114.87a1.39,1.39,0,0,1-.44-1.05V77.19a1.37,1.37,0,0,1,.44-1,1.49,1.49,0,0,1,1.08-.41h7a1.39,1.39,0,0,1,1.05.41,1.42,1.42,0,0,1,.41,1V79.3q3.17-4.15,9.07-4.16a11.52,11.52,0,0,1,8.93,3.54q3.24,3.54,3.48,10.1c0,.5.06,1.23.06,2.16s0,1.68-.06,2.23q-.24,6.31-3.51,10a11.42,11.42,0,0,1-8.9,3.62q-5.67,0-8.48-3.86v10.94a1.44,1.44,0,0,1-.41,1.05,1.46,1.46,0,0,1-1.06.41h-7.55A1.53,1.53,0,0,1,389.81,114.87Zm19-17.81a8.05,8.05,0,0,0,1.32-4.3c0-.39.06-1,.06-1.82s0-1.42-.06-1.81a8,8,0,0,0-1.32-4.3A4.36,4.36,0,0,0,405,83.28a4.4,4.4,0,0,0-3.75,1.61A7,7,0,0,0,399.91,89c0,.51-.06,1.25-.06,2.23s0,1.66.06,2.16a6.14,6.14,0,0,0,1.37,3.78A4.61,4.61,0,0,0,405,98.61,4.38,4.38,0,0,0,408.77,97.06Z"/><path d="M428.76,94.51V83.69h-4.63a1.4,1.4,0,0,1-1-.44,1.44,1.44,0,0,1-.44-1v-5a1.37,1.37,0,0,1,.44-1,1.41,1.41,0,0,1,1-.41h4.63V66.07a1.34,1.34,0,0,1,.44-1,1.41,1.41,0,0,1,1-.41h7.2a1.4,1.4,0,0,1,1.46,1.46v9.66h7.32a1.49,1.49,0,0,1,1.08.41,1.37,1.37,0,0,1,.44,1v5a1.41,1.41,0,0,1-.44,1.06,1.53,1.53,0,0,1-1.08.41h-7.32v9.94a5.36,5.36,0,0,0,.76,3.11,2.84,2.84,0,0,0,2.46,1.05h4.62a1.41,1.41,0,0,1,1.06.44,1.53,1.53,0,0,1,.41,1.08v5.39a1.45,1.45,0,0,1-.41,1,1.41,1.41,0,0,1-1.06.44h-5.56Q428.76,106.16,428.76,94.51Z"/></svg>