<svg id="Layer_1" data-name="Layer 1" xmlns="http://www.w3.org/2000/svg" viewBox="0 0 473.86 173.58"><defs><style>.cls-1{fill:#ff9413;}.cls-2{fill:#ef2b3e;}.cls-3{fill:#5980fa;}.cls-4{fill:#9438f1;}.cls-5{font-size:18.89px;font-family:Rubik-Bold, Rubik;font-weight:700;}.cls-6{letter-spacing:-0.11em;}.cls-7{letter-spacing:0.04em;}.cls-8{letter-spacing:-0.01em;}.cls-9{letter-spacing:-0.02em;}.cls-10{letter-spacing:-0.02em;}.cls-11{letter-spacing:-0.03em;}.cls-12{letter-spacing:-0.02em;}.cls-13{letter-spacing:-0.07em;}</style></defs><title>Artboard 294</title><path class="cls-1" d="M97.88,89.35l-14.06-.08A39.91,39.91,0,0,0,44.2,49.19l.08-14.06A53.91,53.91,0,0,1,91,62.71a54,54,0,0,1,47-27.05L138,49.73A39.89,39.89,0,0,0,97.88,89.35Z"/><circle class="cls-1" cx="91.19" cy="29.53" r="11.72"/><path class="cls-2" d="M137.43,143.62A54,54,0,0,1,90.7,116a54,54,0,0,1-47,27.05L43.74,129A39.89,39.89,0,0,0,83.82,89.4l14.06.08a39.89,39.89,0,0,0,39.63,40.07Z"/><circle class="cls-2" cx="90.51" cy="149.21" r="11.72"/><path class="cls-3" d="M144.47,136.56l-14.06-.08A39.9,39.9,0,0,0,90.78,96.41l.08-14.07a39.9,39.9,0,0,0,40.08-39.62L145,42.8a53.93,53.93,0,0,1-27.57,46.72A54,54,0,0,1,144.47,136.56Z"/><circle class="cls-3" cx="150.6" cy="89.71" r="11.72"/><path class="cls-4" d="M50.76,136,36.7,136A54,54,0,0,1,64.28,89.22a53.94,53.94,0,0,1-27.05-47l14.07.08A39.89,39.89,0,0,0,90.92,82.34l-.08,14.07A39.9,39.9,0,0,0,50.76,136Z"/><circle class="cls-4" cx="31.1" cy="89.04" r="11.72"/><path class="cls-1" d="M130.13,50.46a39.68,39.68,0,0,1,7.83-.73l0-7,0,0c-1.22-1.23-7,0-7,0C130.92,45.37,128.24,48.54,130.13,50.46Z"/><path class="cls-2" d="M51.57,128.29a39.61,39.61,0,0,1-7.83.73l0,7v0l7.46.72C52.38,136.34,53.87,131,51.57,128.29Z"/><path d="M191.65,97a1.4,1.4,0,0,1-.44-1V57.93a1.37,1.37,0,0,1,.44-1,1.45,1.45,0,0,1,1-.41h8.2a1.44,1.44,0,0,1,1,.41,1.42,1.42,0,0,1,.41,1V88.25h17.56a1.5,1.5,0,0,1,1.52,1.52V96a1.39,1.39,0,0,1-.44,1,1.53,1.53,0,0,1-1.08.41H192.67A1.4,1.4,0,0,1,191.65,97Z"/><path d="M226.09,62.35a1.53,1.53,0,0,1-.41-1.08V55.83a1.51,1.51,0,0,1,.44-1.09,1.39,1.39,0,0,1,1-.43h7.32a1.46,1.46,0,0,1,1.08.43,1.51,1.51,0,0,1,.44,1.09v5.44a1.47,1.47,0,0,1-.44,1.08,1.43,1.43,0,0,1-1.08.44h-7.32A1.34,1.34,0,0,1,226.09,62.35Zm0,34.65a1.4,1.4,0,0,1-.44-1V68.47a1.41,1.41,0,0,1,.44-1.06,1.44,1.44,0,0,1,1-.4h7.32a1.52,1.52,0,0,1,1.08.4,1.41,1.41,0,0,1,.44,1.06V96a1.39,1.39,0,0,1-.44,1,1.53,1.53,0,0,1-1.08.41h-7.32A1.4,1.4,0,0,1,226.12,97Z"/><path d="M246.6,97a1.39,1.39,0,0,1-.44-1V75h-4.39a1.52,1.52,0,0,1-1.08-.4,1.41,1.41,0,0,1-.44-1.06v-5a1.41,1.41,0,0,1,.44-1.06,1.52,1.52,0,0,1,1.08-.4h4.39V65.25q0-5.85,3.4-8.49t9.71-2.63h4.63a1.55,1.55,0,0,1,1.08.41,1.37,1.37,0,0,1,.44,1.05v5a1.37,1.37,0,0,1-.44,1,1.55,1.55,0,0,1-1.08.41h-4.16a3.48,3.48,0,0,0-2.66.85,3.68,3.68,0,0,0-.79,2.6V67h7a1.52,1.52,0,0,1,1.08.4,1.37,1.37,0,0,1,.44,1.06v5a1.37,1.37,0,0,1-.44,1.06,1.52,1.52,0,0,1-1.08.4h-7V96a1.45,1.45,0,0,1-.41,1,1.41,1.41,0,0,1-1.06.44h-7.14A1.53,1.53,0,0,1,246.6,97Z"/><path d="M270.39,94.19Q266.3,90.37,266.18,83V81.23c.15-4.65,1.6-8.27,4.33-10.89s6.42-3.92,11.06-3.92a16.71,16.71,0,0,1,8.52,2,12.74,12.74,0,0,1,5.2,5.56,18.14,18.14,0,0,1,1.73,8v1.46A1.5,1.5,0,0,1,295.5,85H277v.35a7.32,7.32,0,0,0,1.23,4.24,3.85,3.85,0,0,0,3.33,1.61,4,4,0,0,0,2.25-.55,7.41,7.41,0,0,0,1.61-1.44,3.53,3.53,0,0,1,.85-.73,2.87,2.87,0,0,1,1-.14h7.66a1.32,1.32,0,0,1,.91.32,1,1,0,0,1,.38.79,6,6,0,0,1-1.72,3.57,13.76,13.76,0,0,1-5,3.51A19.27,19.27,0,0,1,281.63,98Q274.49,98,270.39,94.19Zm15.86-15.13v-.12A6.87,6.87,0,0,0,285,74.58,4.16,4.16,0,0,0,281.57,73a4.08,4.08,0,0,0-3.42,1.55,7,7,0,0,0-1.2,4.36v.12Z"/><path d="M322.62,106.15a1.4,1.4,0,0,1-.43-1.06V94.16Q319.37,98,313.76,98a11.5,11.5,0,0,1-9-3.62q-3.27-3.63-3.51-10l-.06-2.23.06-2.16q.24-6.56,3.48-10.1t9-3.54a11.82,11.82,0,0,1,5.29,1.11,10.35,10.35,0,0,1,3.72,3v-2.1a1.41,1.41,0,0,1,.44-1.06,1.52,1.52,0,0,1,1.08-.4h7a1.42,1.42,0,0,1,1.05.4,1.46,1.46,0,0,1,.41,1.06v36.62a1.46,1.46,0,0,1-.41,1.06,1.42,1.42,0,0,1-1.05.41h-7.55A1.57,1.57,0,0,1,322.62,106.15ZM320.81,88.4a6.21,6.21,0,0,0,1.38-3.78c.07-1,.11-1.73.11-2.16s0-1.21-.11-2.23a7.14,7.14,0,0,0-1.32-4.09,4.42,4.42,0,0,0-3.78-1.58,4.27,4.27,0,0,0-3.74,1.55,8.2,8.2,0,0,0-1.29,4.3c0,.39-.06,1-.06,1.81s0,1.43.06,1.82a8.26,8.26,0,0,0,1.29,4.3,4.3,4.3,0,0,0,3.74,1.55A4.61,4.61,0,0,0,320.81,88.4Z"/><path d="M341.09,94.57q-3.16-3.45-3.16-9.77V68.47a1.37,1.37,0,0,1,.44-1.06,1.44,1.44,0,0,1,1-.4h7.78a1.55,1.55,0,0,1,1.09.4,1.41,1.41,0,0,1,.44,1.06v16c0,3.62,1.62,5.44,4.85,5.44a4.72,4.72,0,0,0,3.66-1.44,5.68,5.68,0,0,0,1.32-4v-16a1.41,1.41,0,0,1,.44-1.06,1.52,1.52,0,0,1,1.08-.4h7.73a1.43,1.43,0,0,1,1.05.4,1.46,1.46,0,0,1,.41,1.06V96a1.45,1.45,0,0,1-.41,1,1.39,1.39,0,0,1-1.05.44h-7.14a1.57,1.57,0,0,1-1.09-.41,1.39,1.39,0,0,1-.44-1V93.75q-3,4.27-9.71,4.27A10.75,10.75,0,0,1,341.09,94.57Z"/><path d="M375.15,62.35a1.53,1.53,0,0,1-.41-1.08V55.83a1.51,1.51,0,0,1,.44-1.09,1.39,1.39,0,0,1,1-.43h7.32a1.46,1.46,0,0,1,1.08.43,1.51,1.51,0,0,1,.44,1.09v5.44a1.47,1.47,0,0,1-.44,1.08,1.43,1.43,0,0,1-1.08.44H376.2A1.34,1.34,0,0,1,375.15,62.35Zm0,34.65a1.4,1.4,0,0,1-.44-1V68.47a1.41,1.41,0,0,1,.44-1.06,1.44,1.44,0,0,1,1-.4h7.32a1.52,1.52,0,0,1,1.08.4,1.41,1.41,0,0,1,.44,1.06V96a1.39,1.39,0,0,1-.44,1,1.53,1.53,0,0,1-1.08.41H376.2A1.4,1.4,0,0,1,375.18,97Z"/><path d="M389.81,106.15a1.41,1.41,0,0,1-.44-1.06V68.47a1.41,1.41,0,0,1,.44-1.06,1.52,1.52,0,0,1,1.08-.4h7a1.42,1.42,0,0,1,1.05.4,1.46,1.46,0,0,1,.41,1.06v2.1q3.17-4.14,9.07-4.15A11.52,11.52,0,0,1,417.32,70q3.24,3.54,3.48,10.1.06.75.06,2.16c0,.94,0,1.68-.06,2.23q-.24,6.31-3.51,10a11.42,11.42,0,0,1-8.9,3.62q-5.67,0-8.48-3.86v10.93a1.41,1.41,0,0,1-1.47,1.47h-7.55A1.53,1.53,0,0,1,389.81,106.15Zm19-17.81a8.08,8.08,0,0,0,1.32-4.3c0-.39.06-1,.06-1.82s0-1.42-.06-1.81a8,8,0,0,0-1.32-4.3A4.36,4.36,0,0,0,405,74.56a4.42,4.42,0,0,0-3.75,1.6,7,7,0,0,0-1.34,4.07c0,.51-.06,1.25-.06,2.23s0,1.65.06,2.16a6.14,6.14,0,0,0,1.37,3.78A4.61,4.61,0,0,0,405,89.89,4.38,4.38,0,0,0,408.77,88.34Z"/><path d="M428.76,85.79V75h-4.63a1.39,1.39,0,0,1-1-.43,1.44,1.44,0,0,1-.44-1v-5a1.41,1.41,0,0,1,.44-1.06,1.44,1.44,0,0,1,1-.4h4.63V57.35a1.34,1.34,0,0,1,.44-1.05,1.41,1.41,0,0,1,1-.41h7.2a1.4,1.4,0,0,1,1.46,1.46V67h7.32a1.52,1.52,0,0,1,1.08.4,1.41,1.41,0,0,1,.44,1.06v5a1.41,1.41,0,0,1-.44,1.06,1.52,1.52,0,0,1-1.08.4h-7.32v10a5.36,5.36,0,0,0,.76,3.11,2.84,2.84,0,0,0,2.46,1h4.62a1.41,1.41,0,0,1,1.06.44,1.53,1.53,0,0,1,.41,1.08V96a1.45,1.45,0,0,1-.41,1,1.41,1.41,0,0,1-1.06.44h-5.56Q428.76,97.44,428.76,85.79Z"/><text class="cls-5" transform="translate(191.96 124.97)"><tspan class="cls-6">T</tspan><tspan x="9.96" y="0">ools</tspan><tspan class="cls-7" x="49.16" y="0"> </tspan><tspan class="cls-8" x="53.94" y="0">f</tspan><tspan class="cls-9" x="62.3" y="0">o</tspan><tspan class="cls-10" x="73.52" y="0">r</tspan><tspan x="81.87" y="0" xml:space="preserve"> Li</tspan><tspan class="cls-11" x="102.65" y="0">f</tspan><tspan class="cls-12" x="110.63" y="0">e</tspan><tspan class="cls-13" x="121.53" y="0">’</tspan><tspan x="125.23" y="0">s Changes</tspan></text></svg>